<mxfile host="Electron" agent="Mozilla/5.0 (Macintosh; Intel Mac OS X 10_15_7) AppleWebKit/537.36 (KHTML, like Gecko) draw.io/27.0.9 Chrome/134.0.6998.205 Electron/35.4.0 Safari/537.36" version="27.0.9">
  <diagram name="Page-1" id="c0MG-RBC0vRgcLwglr-d">
    <mxGraphModel dx="332" dy="200" grid="1" gridSize="10" guides="1" tooltips="1" connect="1" arrows="1" fold="1" page="1" pageScale="1" pageWidth="850" pageHeight="1100" math="1" shadow="0">
      <root>
        <mxCell id="0" />
        <mxCell id="1" style="" parent="0" />
        <mxCell id="1xT_XLDmfG5W3h2NDaip-9" value="" style="rounded=1;whiteSpace=wrap;html=1;arcSize=10;fillColor=#fff2cc;strokeColor=#d6b656;" parent="1" vertex="1">
          <mxGeometry x="290" y="320" width="110" height="80" as="geometry" />
        </mxCell>
        <mxCell id="tu5HurWKdW6vMsWYtJIJ-1" value="" style="endArrow=classic;html=1;rounded=0;" edge="1" parent="1">
          <mxGeometry width="50" height="50" relative="1" as="geometry">
            <mxPoint x="240" y="360" as="sourcePoint" />
            <mxPoint x="290" y="359.8" as="targetPoint" />
          </mxGeometry>
        </mxCell>
        <mxCell id="UrFGi6wFs18K0bhvfEZ_-5" value="pics" style="" parent="0" />
        <mxCell id="1xT_XLDmfG5W3h2NDaip-6" value="" style="shape=mxgraph.signs.healthcare.brain;html=1;pointerEvents=1;fillColor=#000000;strokeColor=none;verticalLabelPosition=bottom;verticalAlign=top;align=center;" parent="UrFGi6wFs18K0bhvfEZ_-5" vertex="1">
          <mxGeometry x="302" y="340" width="55" height="50" as="geometry" />
        </mxCell>
        <mxCell id="UrFGi6wFs18K0bhvfEZ_-6" value="sigs" style="" parent="0" />
        <mxCell id="1xT_XLDmfG5W3h2NDaip-18" value="" style="endArrow=classic;html=1;rounded=0;entryX=1;entryY=0.967;entryDx=0;entryDy=0;entryPerimeter=0;" parent="UrFGi6wFs18K0bhvfEZ_-6" edge="1" target="tu5HurWKdW6vMsWYtJIJ-4">
          <mxGeometry width="50" height="50" relative="1" as="geometry">
            <mxPoint x="400" y="360" as="sourcePoint" />
            <mxPoint x="440" y="360" as="targetPoint" />
          </mxGeometry>
        </mxCell>
        <mxCell id="UrFGi6wFs18K0bhvfEZ_-8" value="name" style="" parent="0" />
        <mxCell id="1xT_XLDmfG5W3h2NDaip-13" value="Neural-Network" style="text;html=1;align=center;verticalAlign=middle;resizable=0;points=[];autosize=1;strokeColor=none;fillColor=none;fontFamily=Times New Roman;" parent="UrFGi6wFs18K0bhvfEZ_-8" vertex="1">
          <mxGeometry x="298" y="314" width="100" height="30" as="geometry" />
        </mxCell>
        <mxCell id="tu5HurWKdW6vMsWYtJIJ-2" value="$$?$$" style="text;html=1;align=center;verticalAlign=middle;resizable=0;points=[];autosize=1;strokeColor=none;fillColor=none;fontSize=34;" vertex="1" parent="UrFGi6wFs18K0bhvfEZ_-8">
          <mxGeometry x="318" y="344" width="120" height="50" as="geometry" />
        </mxCell>
        <mxCell id="tu5HurWKdW6vMsWYtJIJ-3" value="&lt;font face=&quot;Times New Roman&quot;&gt;Input&lt;/font&gt;" style="text;html=1;align=center;verticalAlign=middle;resizable=0;points=[];autosize=1;strokeColor=none;fillColor=none;fontSize=8;" vertex="1" parent="UrFGi6wFs18K0bhvfEZ_-8">
          <mxGeometry x="243" y="342" width="40" height="20" as="geometry" />
        </mxCell>
        <mxCell id="tu5HurWKdW6vMsWYtJIJ-4" value="&lt;font face=&quot;Times New Roman&quot;&gt;Unpredictable&lt;/font&gt;&lt;div&gt;&lt;font face=&quot;Times New Roman&quot;&gt;Output&lt;/font&gt;&lt;/div&gt;" style="text;html=1;align=center;verticalAlign=middle;resizable=0;points=[];autosize=1;strokeColor=none;fillColor=none;fontSize=8;" vertex="1" parent="UrFGi6wFs18K0bhvfEZ_-8">
          <mxGeometry x="390" y="331" width="70" height="30" as="geometry" />
        </mxCell>
        <mxCell id="UrFGi6wFs18K0bhvfEZ_-7" value="math" style="" parent="0" />
      </root>
    </mxGraphModel>
  </diagram>
</mxfile>
